<mxfile host="Electron" modified="2024-01-31T00:58:15.579Z" agent="Mozilla/5.0 (Windows NT 10.0; Win64; x64) AppleWebKit/537.36 (KHTML, like Gecko) draw.io/22.1.16 Chrome/120.0.6099.109 Electron/28.1.0 Safari/537.36" etag="YSq7ZLobYKCwKlgDgUx6" version="22.1.16" type="device">
  <diagram id="C5RBs43oDa-KdzZeNtuy" name="Page-1">
    <mxGraphModel dx="1195" dy="703" grid="1" gridSize="10" guides="1" tooltips="1" connect="1" arrows="1" fold="1" page="1" pageScale="1" pageWidth="827" pageHeight="1169" math="0" shadow="0">
      <root>
        <mxCell id="WIyWlLk6GJQsqaUBKTNV-0" />
        <mxCell id="WIyWlLk6GJQsqaUBKTNV-1" parent="WIyWlLk6GJQsqaUBKTNV-0" />
        <mxCell id="kQSE0KYJN6h1k0c9Swpy-5" value="" style="edgeStyle=orthogonalEdgeStyle;rounded=0;orthogonalLoop=1;jettySize=auto;html=1;fontFamily=Times New Roman;" edge="1" parent="WIyWlLk6GJQsqaUBKTNV-1" source="kQSE0KYJN6h1k0c9Swpy-0" target="kQSE0KYJN6h1k0c9Swpy-3">
          <mxGeometry relative="1" as="geometry" />
        </mxCell>
        <mxCell id="kQSE0KYJN6h1k0c9Swpy-0" value="&lt;span style=&quot;font-family: Helvetica; background-color: initial;&quot;&gt;A[Fetch Bible Book]&lt;/span&gt;" style="rounded=0;whiteSpace=wrap;html=1;fillColor=#6d8764;fontColor=#ffffff;strokeColor=#3A5431;fontFamily=Verdana;" vertex="1" parent="WIyWlLk6GJQsqaUBKTNV-1">
          <mxGeometry x="334" y="50" width="160" height="50" as="geometry" />
        </mxCell>
        <mxCell id="kQSE0KYJN6h1k0c9Swpy-6" value="" style="edgeStyle=orthogonalEdgeStyle;rounded=0;orthogonalLoop=1;jettySize=auto;html=1;fontFamily=Times New Roman;" edge="1" parent="WIyWlLk6GJQsqaUBKTNV-1" source="kQSE0KYJN6h1k0c9Swpy-3" target="kQSE0KYJN6h1k0c9Swpy-4">
          <mxGeometry relative="1" as="geometry" />
        </mxCell>
        <mxCell id="kQSE0KYJN6h1k0c9Swpy-9" value="" style="edgeStyle=orthogonalEdgeStyle;rounded=0;orthogonalLoop=1;jettySize=auto;html=1;fontFamily=Times New Roman;" edge="1" parent="WIyWlLk6GJQsqaUBKTNV-1" source="kQSE0KYJN6h1k0c9Swpy-3" target="kQSE0KYJN6h1k0c9Swpy-8">
          <mxGeometry relative="1" as="geometry" />
        </mxCell>
        <mxCell id="kQSE0KYJN6h1k0c9Swpy-3" value="&lt;div&gt;&lt;code class=&quot;!whitespace-pre hljs language-mermaid&quot;&gt;&lt;font face=&quot;Helvetica&quot;&gt;B{Fetch loads default book&lt;/font&gt;&lt;/code&gt;&lt;/div&gt;&lt;div&gt;&lt;code class=&quot;!whitespace-pre hljs language-mermaid&quot;&gt;&lt;font face=&quot;Helvetica&quot;&gt;with chapter 1}&lt;/font&gt;&lt;/code&gt;&lt;/div&gt;" style="rounded=0;whiteSpace=wrap;html=1;fillColor=#647687;fontColor=#ffffff;strokeColor=#314354;fontFamily=Verdana;" vertex="1" parent="WIyWlLk6GJQsqaUBKTNV-1">
          <mxGeometry x="328" y="130" width="172" height="60" as="geometry" />
        </mxCell>
        <mxCell id="kQSE0KYJN6h1k0c9Swpy-10" value="" style="edgeStyle=orthogonalEdgeStyle;rounded=0;orthogonalLoop=1;jettySize=auto;html=1;fontFamily=Times New Roman;" edge="1" parent="WIyWlLk6GJQsqaUBKTNV-1" source="kQSE0KYJN6h1k0c9Swpy-4" target="kQSE0KYJN6h1k0c9Swpy-7">
          <mxGeometry relative="1" as="geometry" />
        </mxCell>
        <mxCell id="kQSE0KYJN6h1k0c9Swpy-4" value="&lt;div&gt;&lt;code class=&quot;!whitespace-pre hljs language-mermaid&quot;&gt;&lt;font face=&quot;Helvetica&quot;&gt;C[Populate dropdown with books]&lt;/font&gt;&lt;/code&gt;&lt;/div&gt;" style="rounded=0;whiteSpace=wrap;html=1;fillColor=#76608a;fontColor=#ffffff;strokeColor=#432D57;fontFamily=Verdana;" vertex="1" parent="WIyWlLk6GJQsqaUBKTNV-1">
          <mxGeometry x="284" y="220" width="260" height="60" as="geometry" />
        </mxCell>
        <mxCell id="kQSE0KYJN6h1k0c9Swpy-12" value="" style="edgeStyle=orthogonalEdgeStyle;rounded=0;orthogonalLoop=1;jettySize=auto;html=1;fontFamily=Times New Roman;" edge="1" parent="WIyWlLk6GJQsqaUBKTNV-1" source="kQSE0KYJN6h1k0c9Swpy-7" target="kQSE0KYJN6h1k0c9Swpy-11">
          <mxGeometry relative="1" as="geometry" />
        </mxCell>
        <mxCell id="kQSE0KYJN6h1k0c9Swpy-14" value="" style="edgeStyle=orthogonalEdgeStyle;rounded=0;orthogonalLoop=1;jettySize=auto;html=1;fontFamily=Times New Roman;" edge="1" parent="WIyWlLk6GJQsqaUBKTNV-1" source="kQSE0KYJN6h1k0c9Swpy-7" target="kQSE0KYJN6h1k0c9Swpy-13">
          <mxGeometry relative="1" as="geometry" />
        </mxCell>
        <mxCell id="kQSE0KYJN6h1k0c9Swpy-7" value="&lt;div&gt;&lt;code class=&quot;!whitespace-pre hljs language-mermaid&quot;&gt;E[Change book selected]&lt;/code&gt;&lt;/div&gt;" style="rounded=0;whiteSpace=wrap;html=1;fillColor=#f0a30a;fontColor=#000000;strokeColor=#BD7000;fontFamily=Verdana;" vertex="1" parent="WIyWlLk6GJQsqaUBKTNV-1">
          <mxGeometry x="328" y="310" width="172" height="60" as="geometry" />
        </mxCell>
        <mxCell id="kQSE0KYJN6h1k0c9Swpy-8" value="&lt;font face=&quot;Helvetica&quot;&gt;&lt;br&gt;&lt;/font&gt;&lt;div&gt;&lt;code class=&quot;!whitespace-pre hljs language-mermaid&quot;&gt;&lt;font face=&quot;EFIe6Ufx2uKbOLL2HoXt&quot;&gt;[Populate dropdown &lt;/font&gt;&lt;/code&gt;&lt;/div&gt;&lt;div&gt;&lt;code class=&quot;!whitespace-pre hljs language-mermaid&quot;&gt;&lt;font face=&quot;EFIe6Ufx2uKbOLL2HoXt&quot;&gt;with chapters of &lt;/font&gt;&lt;/code&gt;&lt;/div&gt;&lt;div&gt;&lt;code class=&quot;!whitespace-pre hljs language-mermaid&quot;&gt;&lt;font face=&quot;EFIe6Ufx2uKbOLL2HoXt&quot;&gt;default book]&lt;/font&gt;&lt;/code&gt;&lt;/div&gt;" style="whiteSpace=wrap;html=1;rounded=0;fillColor=#76608a;fontColor=#ffffff;strokeColor=#432D57;fontFamily=Verdana;" vertex="1" parent="WIyWlLk6GJQsqaUBKTNV-1">
          <mxGeometry x="570" y="210" width="168" height="80" as="geometry" />
        </mxCell>
        <mxCell id="kQSE0KYJN6h1k0c9Swpy-11" value="&lt;br&gt;&lt;div&gt;&lt;code class=&quot;!whitespace-pre hljs language-mermaid&quot;&gt;F[Clear chapter dropdown list&lt;/code&gt;&lt;/div&gt;&lt;div&gt;&lt;code class=&quot;!whitespace-pre hljs language-mermaid&quot;&gt;and verse container]&lt;/code&gt;&lt;/div&gt;&lt;br&gt;" style="whiteSpace=wrap;html=1;rounded=0;fillColor=#fa6800;strokeColor=#C73500;fontColor=#000000;fontFamily=Verdana;" vertex="1" parent="WIyWlLk6GJQsqaUBKTNV-1">
          <mxGeometry x="298" y="400" width="232" height="60" as="geometry" />
        </mxCell>
        <mxCell id="kQSE0KYJN6h1k0c9Swpy-16" value="" style="edgeStyle=orthogonalEdgeStyle;rounded=0;orthogonalLoop=1;jettySize=auto;html=1;fontFamily=Times New Roman;" edge="1" parent="WIyWlLk6GJQsqaUBKTNV-1" source="kQSE0KYJN6h1k0c9Swpy-13" target="kQSE0KYJN6h1k0c9Swpy-15">
          <mxGeometry relative="1" as="geometry" />
        </mxCell>
        <mxCell id="kQSE0KYJN6h1k0c9Swpy-13" value="&#xa;&lt;div&gt;&lt;code class=&quot;!whitespace-pre hljs language-mermaid&quot;&gt;G[Fetch chapters of new book]&lt;/code&gt;&lt;/div&gt;&#xa;&#xa;" style="whiteSpace=wrap;html=1;rounded=0;fillColor=#647687;fontColor=#ffffff;strokeColor=#314354;fontFamily=Verdana;" vertex="1" parent="WIyWlLk6GJQsqaUBKTNV-1">
          <mxGeometry x="538" y="310" width="232" height="60" as="geometry" />
        </mxCell>
        <mxCell id="kQSE0KYJN6h1k0c9Swpy-18" value="" style="edgeStyle=orthogonalEdgeStyle;rounded=0;orthogonalLoop=1;jettySize=auto;html=1;fontFamily=Times New Roman;" edge="1" parent="WIyWlLk6GJQsqaUBKTNV-1" source="kQSE0KYJN6h1k0c9Swpy-15" target="kQSE0KYJN6h1k0c9Swpy-17">
          <mxGeometry relative="1" as="geometry" />
        </mxCell>
        <mxCell id="kQSE0KYJN6h1k0c9Swpy-15" value="&lt;br&gt;&lt;div&gt;&lt;code class=&quot;!whitespace-pre hljs language-mermaid&quot;&gt;H[Populate dropdown with &lt;/code&gt;&lt;/div&gt;&lt;div&gt;&lt;code class=&quot;!whitespace-pre hljs language-mermaid&quot;&gt;chapters of new book]&lt;/code&gt;&lt;/div&gt;&lt;br&gt;" style="whiteSpace=wrap;html=1;rounded=0;fillColor=#76608a;fontColor=#ffffff;strokeColor=#432D57;fontFamily=Verdana;" vertex="1" parent="WIyWlLk6GJQsqaUBKTNV-1">
          <mxGeometry x="550" y="400" width="208" height="60" as="geometry" />
        </mxCell>
        <mxCell id="kQSE0KYJN6h1k0c9Swpy-27" value="" style="edgeStyle=orthogonalEdgeStyle;rounded=0;orthogonalLoop=1;jettySize=auto;html=1;fontFamily=Times New Roman;" edge="1" parent="WIyWlLk6GJQsqaUBKTNV-1" source="kQSE0KYJN6h1k0c9Swpy-17" target="kQSE0KYJN6h1k0c9Swpy-26">
          <mxGeometry relative="1" as="geometry" />
        </mxCell>
        <mxCell id="kQSE0KYJN6h1k0c9Swpy-17" value="&lt;br&gt;&lt;div&gt;&lt;code class=&quot;!whitespace-pre hljs language-mermaid&quot;&gt;I{Chapter 1 of &lt;/code&gt;&lt;/div&gt;&lt;div&gt;&lt;code class=&quot;!whitespace-pre hljs language-mermaid&quot;&gt;new book}&lt;/code&gt;&lt;/div&gt;&lt;br&gt;" style="whiteSpace=wrap;html=1;rounded=0;fillColor=#6d8764;fontColor=#ffffff;strokeColor=#3A5431;fontFamily=Verdana;" vertex="1" parent="WIyWlLk6GJQsqaUBKTNV-1">
          <mxGeometry x="450" y="520" width="172" height="60" as="geometry" />
        </mxCell>
        <mxCell id="kQSE0KYJN6h1k0c9Swpy-23" style="edgeStyle=orthogonalEdgeStyle;rounded=0;orthogonalLoop=1;jettySize=auto;html=1;exitX=0.5;exitY=0;exitDx=0;exitDy=0;fontFamily=Times New Roman;" edge="1" parent="WIyWlLk6GJQsqaUBKTNV-1">
          <mxGeometry relative="1" as="geometry">
            <mxPoint x="414" y="550" as="sourcePoint" />
            <mxPoint x="414" y="550" as="targetPoint" />
          </mxGeometry>
        </mxCell>
        <mxCell id="kQSE0KYJN6h1k0c9Swpy-29" value="" style="edgeStyle=orthogonalEdgeStyle;rounded=0;orthogonalLoop=1;jettySize=auto;html=1;fontFamily=Times New Roman;" edge="1" parent="WIyWlLk6GJQsqaUBKTNV-1" source="kQSE0KYJN6h1k0c9Swpy-26" target="kQSE0KYJN6h1k0c9Swpy-28">
          <mxGeometry relative="1" as="geometry" />
        </mxCell>
        <mxCell id="kQSE0KYJN6h1k0c9Swpy-26" value="On reload" style="whiteSpace=wrap;html=1;fillColor=#f0a30a;strokeColor=#BD7000;fontColor=#000000;rounded=0;fontFamily=Verdana;" vertex="1" parent="WIyWlLk6GJQsqaUBKTNV-1">
          <mxGeometry x="476" y="610" width="120" height="60" as="geometry" />
        </mxCell>
        <mxCell id="kQSE0KYJN6h1k0c9Swpy-28" value="Fetches last loaded book and chapter" style="whiteSpace=wrap;html=1;fillColor=#647687;strokeColor=#314354;fontColor=#ffffff;rounded=0;fontFamily=Verdana;" vertex="1" parent="WIyWlLk6GJQsqaUBKTNV-1">
          <mxGeometry x="290" y="610" width="140" height="60" as="geometry" />
        </mxCell>
      </root>
    </mxGraphModel>
  </diagram>
</mxfile>
